<svg xmlns="http://www.w3.org/2000/svg" viewBox="342.73 154.84 166.17 372.72" role="img" aria-label="REMAL Perfumes"><path fill="currentColor" fill-rule="nonzero" d="M356.943 355.050C361.258 346.427 369.382 332.729 384.146 318.344L384.134 212.101L398.720 193.068L398.776 310.522C390.654 318.004 383.046 325.981 376.432 334.783C371.793 340.958 367.672 347.143 364.372 354.083C362.085 358.487 360.798 362.954 359.884 367.820C358.462 375.386 358.238 382.785 359.555 390.425C360.219 394.281 361.168 398.041 362.393 401.700C363.141 403.928 365.117 409.478 369.232 416.567C374.228 425.174 379.357 430.849 384.690 436.685C392.590 445.327 394.057 445.285 400.924 453.101C407.431 460.504 410.682 464.205 413.447 469.652C414.865 472.449 424.471 491.388 415.600 509.413C412.238 516.241 407.299 520.759 403.410 523.560C405.370 518.822 407.708 511.189 406.592 502.200C404.949 488.969 396.681 479.713 387.372 469.295C380.216 461.286 374.872 457.416 364.772 445.401C362.872 443.142 359.840 439.446 356.730 434.088C352.673 427.094 350.751 421.173 350.164 419.278C347.538 410.781 347.264 403.947 347.087 398.563C346.734 387.875 348.273 379.865 348.602 378.216C349.163 375.392 351.004 366.916 356.943 355.050"/><path fill="currentColor" fill-rule="nonzero" d="M488.909 438.368C482.802 448.730 477.162 454.583 475.061 456.677C471.890 459.840 468.972 462.230 466.801 463.881C472.253 455.997 476.330 449.168 479.197 444.060C483.082 437.138 484.383 433.927 485.055 432.378C487.474 426.801 489.159 421.078 489.759 414.958C491.528 396.898 486.993 379.028 477.510 363.617C474.415 358.587 470.841 353.875 470.841 353.874L470.840 353.873C470.840 353.873 470.840 353.873 470.840 353.873C467.391 349.475 463.677 345.366 461.126 342.595C461.126 342.595 453.722 334.554 445.156 326.183L445.154 326.180C441.741 322.845 439.295 319.636 439.295 319.636C437.103 316.761 435.456 314.601 434.273 311.228C433.819 309.934 433.240 308.243 433.142 305.938C433.002 302.670 433.914 300.214 434.606 298.407C434.886 297.675 435.846 295.269 438.986 290.921C440.578 288.718 442.872 285.820 445.992 282.671C446.415 282.313 446.838 281.956 447.262 281.598C447.719 281.429 448.175 281.260 448.632 281.090C448.294 281.916 447.875 283.051 447.499 284.431C447.431 284.681 446.825 286.938 446.675 288.753C446.362 292.540 447.926 295.752 448.886 297.669C450.551 300.994 452.523 303.099 454.272 304.938C460.115 311.081 463.037 314.153 466.702 317.777C466.702 317.777 472.401 323.415 478.024 329.926C483.411 336.163 489.091 342.741 493.981 352.176C498.987 361.835 500.980 370.274 501.724 373.881C502.685 378.538 504.907 391.440 501.645 407.555C498.807 421.575 493.231 431.035 488.909 438.368"/><path fill="currentColor" fill-rule="nonzero" d="M463.415 424.127L462.676 430.754C462.054 424.031 460.253 417.814 457.112 411.962C454.673 407.413 452.005 403.247 448.476 399.511L439.378 389.886L425.715 375.394C421.516 370.941 416.994 363.686 416.085 357.596C415.235 353.616 417.483 349.625 420.544 346.542C421.500 349.492 422.755 352.133 424.646 354.583L435.318 368.406L447.312 383.291C453.350 390.785 459.610 402.035 461.837 411.484C462.825 415.656 463.585 419.790 463.415 424.127M468.506 379.476C466.003 374.958 463.484 370.701 460.253 366.647L447.179 350.225L437.731 338.055C434.420 333.219 432.565 327.857 432.485 321.814C427.373 327.023 422.287 333.883 420.103 340.813C413.497 347.536 404.835 357.527 403.001 366.673C401.215 375.575 407.003 385.268 412.668 392.113L424.121 404.363L436.370 417.133C441.812 423.495 447.153 431.843 448.019 440.219C448.763 447.399 447.158 454.339 443.752 460.807C443.874 448.839 438.177 437.572 429.913 428.857C425.630 424.345 421.171 420.322 416.409 416.294C407.444 408.699 399.961 401.350 393.839 391.199C390.273 385.289 388.195 378.886 387.967 371.972C387.807 367.157 388.259 362.565 389.609 357.968C391.591 351.235 394.663 345.118 398.553 339.293C402.353 333.410 406.572 328.213 411.355 323.095L424.487 310.612L424.471 158.843L404.914 184.783L409.830 190.820L409.841 316.543C405.122 320.736 401.093 325.380 397.198 330.302C389.922 339.495 383.864 349.290 379.384 360.126C374.691 372.147 372.534 384.625 375.951 397.199C378.518 406.637 387.345 418.393 394.541 424.972L406.801 436.175L417.547 446.511C424.790 454.435 429.504 462.476 430.689 473.381C431.284 478.844 429.727 483.707 427.299 488.936C433.380 483.143 438.024 478.025 441.153 474.405C459.068 453.677 467.683 435.337 471.222 427.002C473.653 421.276 474.868 418.335 475.537 414.699C477.822 402.280 474.559 390.391 468.506 379.476"/></svg>